:SAMPLES-PER-SECOND 30
:FULLY-SPECIFIED
:DEGREES
147
root  -77.7718 41.7858 -7.33231 178.539 -87.7113 -178.891
RightUpLeg  0.875844 -7.83472 -5.54016
RightLeg  2.32203 -6.47387 3.16314
RightFoot  0.471236 0.00919649 -0.0697931
RightToes  0.00048216 0.542163 -0.142577
Spine  2.45225 0.768948 6.58702
Spine1  4.57758 2.68454 -8.19095
HEad  -5.83886 2.53929 2.69769
LeftShoulder1  0.33031 0.668756 -3.61098
LeftArm  -20.9892 1.34961 -2.32645
LeftForeArm  3.51297 1.58745 -1.13454
LeftHand  -0.25398 0.0180481 5.50724
RightShoulder  0.17347 -2.81797 16.9016
RightArm  -19.4308 3.73813 -7.36862
RightForeArm  -16.3531 1.75445 5.35657
RightHand  -2.06469 6.99806 -19.5788
LeftUpLeg  1.32374 5.35056 3.68705
LeftLeg  2.93909 9.85046 -3.28473
LeftFoot  -1.95568 -0.164358 2.14534
LeftToes  1.06249e-005 4.65856e-005 -8.18498e-006
148
root  -77.9066 41.7905 -7.3935 178.555 -87.9709 -178.874
RightUpLeg  1.14097 -7.75577 -5.45626
RightLeg  2.2543 -6.85389 3.12099
RightFoot  0.269282 0.00929541 -0.0488356
RightToes  0.00048216 0.542163 -0.142577
Spine  2.76593 0.642479 6.06585
Spine1  3.81053 2.43991 -7.81744
HEad  -4.94132 2.83073 2.85027
LeftShoulder1  0.393183 0.150221 -3.40661
LeftArm  -20.9509 2.8247 -2.61498
LeftForeArm  4.46235 1.12725 -0.962213
LeftHand  -0.25398 0.0180481 5.50724
RightShoulder  0.361231 -1.92416 16.8689
RightArm  -17.7095 2.6826 -7.27085
RightForeArm  -17.1654 0.621502 5.66748
RightHand  -2.05975 6.86781 -19.733
LeftUpLeg  1.60884 5.33489 3.7629
LeftLeg  2.66592 9.59622 -3.27875
LeftFoot  -1.9325 -0.156894 2.04004
LeftToes  1.06249e-005 4.65856e-005 -8.18498e-006
149
root  -78.0236 41.7898 -7.44801 177.742 -88.1318 -178.023
RightUpLeg  1.32156 -7.64124 -5.32599
RightLeg  2.23996 -7.15562 3.05054
RightFoot  0.096036 0.00812029 -0.0121352
RightToes  0.00048216 0.542163 -0.142577
Spine  3.48909 0.642374 4.72428
Spine1  2.00367 1.80328 -5.29939
HEad  -3.27041 3.33129 1.63798
LeftShoulder1  0.676185 -1.61737 -5.39657
LeftArm  -20.0393 5.45117 -1.22255
LeftForeArm  4.55121 0.605741 -0.977466
LeftHand  -0.25398 0.0180481 5.50724
RightShoulder  0.5547 -0.708726 12.6408
RightArm  -15.5027 0.677675 -4.49646
RightForeArm  -17.7767 -0.787934 5.95626
RightHand  -2.18837 7.3001 -20.2312
LeftUpLeg  1.83181 5.40279 3.89706
LeftLeg  2.49051 9.345 -3.3201
LeftFoot  -1.96582 -0.15174 1.99059
LeftToes  1.06249e-005 4.65856e-005 -8.18498e-006
150
root  -78.1198 41.7898 -7.49413 177.009 -88.2353 -177.207
RightUpLeg  1.40194 -7.6033 -5.23189
RightLeg  2.24315 -7.31725 3.05048
RightFoot  -0.0101005 0.0139316 -0.0884521
RightToes  0.00048216 0.542163 -0.142577
Spine  3.23895 0.59362 4.56825
Spine1  2.53628 1.78257 -5.3419
HEad  -3.64346 3.42494 1.70044
LeftShoulder1  0.666177 -1.4837 -5.50092
LeftArm  -20.3744 5.61614 -1.38967
LeftForeArm  4.36151 0.569984 -0.824645
LeftHand  -0.25398 0.0180481 5.50724
RightShoulder  0.556545 -0.754328 13.2626
RightArm  -14.9131 0.846771 -4.64017
RightForeArm  -19.752 -1.14265 6.2652
RightHand  -2.32514 7.47255 -21.1801
LeftUpLeg  1.93522 5.49059 4.02816
LeftLeg  2.39532 9.11583 -3.37899
LeftFoot  -1.98967 -0.146327 1.9351
LeftToes  1.06249e-005 4.65856e-005 -8.18498e-006
151
root  -78.2014 41.7943 -7.53467 174.006 -88.3159 -174.112
RightUpLeg  1.54439 -7.57084 -5.10149
RightLeg  2.06294 -7.46983 3.13736
RightFoot  -0.0358649 0.0219524 -0.204125
RightToes  0.00048216 0.542163 -0.142577
Spine  3.05759 0.52818 4.56301
Spine1  2.80569 1.7485 -5.48867
HEad  -3.68411 3.55614 1.73015
LeftShoulder1  0.651222 -1.35936 -5.5346
LeftArm  -20.4837 5.70537 -1.52213
LeftForeArm  4.24067 0.604393 -0.766933
LeftHand  -0.25398 0.0180481 5.50724
RightShoulder  0.586278 -0.656327 13.6417
RightArm  -15.0106 0.55993 -4.68589
RightForeArm  -19.6728 -0.848864 6.20728
RightHand  -2.23683 7.0122 -21.1194
LeftUpLeg  1.99037 5.59989 4.2171
LeftLeg  2.33871 8.88206 -3.41133
LeftFoot  -2.01245 -0.137658 1.82742
LeftToes  1.06249e-005 4.65856e-005 -8.18498e-006
152
root  -78.2748 41.7992 -7.57367 169.137 -88.2995 -169.134
RightUpLeg  1.70836 -7.44092 -4.88263
RightLeg  1.7378 -7.64067 3.21024
RightFoot  -0.0135466 0.0243316 -0.237732
RightToes  0.00048216 0.542163 -0.142577
Spine  2.86749 0.513122 4.76398
Spine1  2.86432 1.81186 -5.92166
HEad  -3.18847 3.59254 1.99517
LeftShoulder1  0.647804 -1.44086 -5.21213
LeftArm  -20.3212 5.9776 -1.71771
LeftForeArm  4.19959 0.52565 -0.81814
LeftHand  -0.25398 0.0180481 5.50724
RightShoulder  0.621256 -0.564622 14.25
RightArm  -14.765 0.148715 -4.93621
RightForeArm  -18.9722 -0.410843 6.24942
RightHand  -2.20559 7.17685 -20.5844
LeftUpLeg  2.03574 5.71938 4.4478
LeftLeg  2.26377 8.75763 -3.41364
LeftFoot  -2.04758 -0.12947 1.72949
LeftToes  1.06249e-005 4.65856e-005 -8.18498e-006
153
root  -78.3355 41.8008 -7.60718 167.281 -88.1635 -167.103
RightUpLeg  1.69211 -7.28801 -4.69263
RightLeg  1.53897 -7.69704 3.20013
RightFoot  -0.0102302 0.0232354 -0.22341
RightToes  0.00048216 0.542163 -0.142577
Spine  2.54869 0.566882 4.58269
Spine1  3.02042 1.81673 -5.73351
HEad  -2.93699 3.69852 1.98831
LeftShoulder1  0.675204 -1.55781 -5.48877
LeftArm  -19.8913 6.24227 -1.46214
LeftForeArm  3.67701 0.436378 -0.986939
LeftHand  -0.25398 0.0180481 5.50724
RightShoulder  0.611923 -0.610934 14.2634
RightArm  -14.2266 0.316529 -4.87091
RightForeArm  -18.9552 -0.61682 6.46436
RightHand  -2.33563 8.02271 -20.4332
LeftUpLeg  2.03681 5.77154 4.57052
LeftLeg  2.12093 8.86186 -3.4101
LeftFoot  -2.06656 -0.124467 1.68195
LeftToes  1.06249e-005 4.65856e-005 -8.18498e-006
154
root  -78.3781 41.7991 -7.62925 168.642 -88.0536 -168.244
RightUpLeg  1.48273 -7.2328 -4.6267
RightLeg  1.5757 -7.65678 3.16281
RightFoot  -0.0799508 0.0236557 -0.239179
RightToes  0.00048216 0.542163 -0.142577
Spine  2.20118 0.605016 4.11055
Spine1  3.22179 1.72793 -5.14612
HEad  -2.98387 3.91838 1.73133
LeftShoulder1  0.712316 -1.58257 -6.23067
LeftArm  -19.519 6.27491 -0.880551
LeftForeArm  2.94914 0.370764 -1.15631
LeftHand  -0.25398 0.0180481 5.50724
RightShoulder  0.598004 -0.631907 13.9017
RightArm  -14.2595 1.20954 -4.56802
RightForeArm  -20.5728 -1.68463 6.58737
RightHand  -2.58833 8.79681 -21.3858
LeftUpLeg  1.93235 5.72578 4.54112
LeftLeg  2.01455 9.05881 -3.38314
LeftFoot  -2.09398 -0.119132 1.62883
LeftToes  1.06249e-005 4.65856e-005 -8.18498e-006
